{
  "accessors": [
    {
      "bufferView": 2,
      "componentType": 5126,
      "count": 1279,
      "max": [
        8.244736671447754,
        2.044830799102783,
        4.935068607330322
      ],
      "min": [
        -8.509618759155273,
        0.003616809844970703,
        -5.117394924163818
      ],
      "type": "VEC3"
    },
    {
      "bufferView": 2,
      "byteOffset": 15348,
      "componentType": 5126,
      "count": 1279,
      "max": [
        1.0,
        0.9999988079071045,
        0.9987379908561707
      ],
      "min": [
        -0.9995198249816895,
        -0.9999997615814209,
        -0.9987268447875977
      ],
      "type": "VEC3"
    },
    {
      "bufferView": 1,
      "componentType": 5126,
      "count": 1279,
      "max": [
        0.9822824001312256,
        0.9533029794692993
      ],
      "min": [
        0.013311147689819336,
        0.011576172895729542
      ],
      "type": "VEC2"
    },
    {
      "bufferView": 0,
      "componentType": 5125,
      "count": 4464,
      "type": "SCALAR"
    }
  ],
  "asset": {
    "extras": {
      "author": "PRINCE.JACK (https://sketchfab.com/J.A.C.K)",
      "license": "CC-BY-4.0 (http://creativecommons.org/licenses/by/4.0/)",
      "source": "https://sketchfab.com/3d-models/paper-plane-3497256a0b5a4592a88ab081ceb551ba",
      "title": "Paper Plane"
    },
    "generator": "Sketchfab-13.74.0",
    "version": "2.0"
  },
  "bufferViews": [
    {
      "buffer": 0,
      "byteLength": 17856,
      "name": "floatBufferViews",
      "target": 34963
    },
    {
      "buffer": 0,
      "byteLength": 10232,
      "byteOffset": 17856,
      "byteStride": 8,
      "name": "floatBufferViews",
      "target": 34962
    },
    {
      "buffer": 0,
      "byteLength": 30696,
      "byteOffset": 28088,
      "byteStride": 12,
      "name": "floatBufferViews",
      "target": 34962
    }
  ],
  "buffers": [
    {
      "byteLength": 58784,
      "uri": "scene.bin"
    }
  ],
  "extensionsRequired": [
    "KHR_materials_pbrSpecularGlossiness"
  ],
  "extensionsUsed": [
    "KHR_materials_pbrSpecularGlossiness"
  ],
  "materials": [
    {
      "doubleSided": true,
      "extensions": {
        "KHR_materials_pbrSpecularGlossiness": {
          "diffuseFactor": [
            0.2278102180882837,
            0.2278102180882837,
            0.2278102180882837,
            1.0
          ],
          "glossinessFactor": 0.8883836598359156,
          "specularFactor": [
            0.15085760261364606,
            0.15085760261364606,
            0.15085760261364606
          ]
        }
      },
      "name": "LIght_MAT"
    }
  ],
  "meshes": [
    {
      "name": "Paper_Plane_Origami_GEO_LIght_MAT_0",
      "primitives": [
        {
          "attributes": {
            "NORMAL": 1,
            "POSITION": 0,
            "TEXCOORD_0": 2
          },
          "indices": 3,
          "material": 0,
          "mode": 4
        }
      ]
    }
  ],
  "nodes": [
    {
      "children": [
        1
      ],
      "matrix": [
        1.0,
        0.0,
        0.0,
        0.0,
        0.0,
        2.220446049250313e-16,
        -1.0,
        0.0,
        0.0,
        1.0,
        2.220446049250313e-16,
        0.0,
        0.0,
        0.0,
        0.0,
        1.0
      ],
      "name": "Sketchfab_model"
    },
    {
      "children": [
        2
      ],
      "matrix": [
        0.009999999776482582,
        0.0,
        0.0,
        0.0,
        0.0,
        0.0,
        0.009999999776482582,
        0.0,
        0.0,
        -0.009999999776482582,
        0.0,
        0.0,
        0.0,
        0.0,
        0.0,
        1.0
      ],
      "name": "a3b11380cad34523a468051e724c3c41.fbx"
    },
    {
      "children": [
        3
      ],
      "name": "RootNode"
    },
    {
      "children": [
        4
      ],
      "name": "Origami_GEO"
    },
    {
      "children": [
        5
      ],
      "matrix": [
        2.1036171913146973,
        0.0,
        0.0,
        0.0,
        0.0,
        2.1036171913146973,
        0.0,
        0.0,
        0.0,
        0.0,
        2.1036171913146973,
        0.0,
        0.0,
        0.0,
        0.0,
        1.0
      ],
      "name": "Paper_Plane_Origami_GEO"
    },
    {
      "mesh": 0,
      "name": "Paper_Plane_Origami_GEO_LIght_MAT_0"
    }
  ],
  "scene": 0,
  "scenes": [
    {
      "name": "Sketchfab_Scene",
      "nodes": [
        0
      ]
    }
  ]
}
